<svg width="162" height="147" viewBox="0 0 162 147" fill="none" xmlns="http://www.w3.org/2000/svg">
<g clip-path="url(#clip0_98_353)">
<ellipse cx="80.19" cy="58.1538" rx="80.19" ry="54.9231" fill="white"/>
<ellipse cx="76.95" cy="108.231" rx="80.19" ry="54.9231" fill="white"/>
<ellipse cx="107.73" cy="105" rx="80.19" ry="54.9231" fill="white"/>
<path d="M139.612 13.5168L3.87049 52.8633L7.46591 65.1401L143.208 25.7936L139.612 13.5168Z" fill="#3F3D56"/>
<path d="M20.088 109.255L0.0807419 40.9389C-0.0675865 40.4324 -0.00759196 39.888 0.247518 39.4255C0.502629 38.963 0.931958 38.6203 1.44107 38.4727L133.892 0.0799607C134.401 -0.0671106 134.948 -0.00722177 135.413 0.246488C135.878 0.500198 136.222 0.926997 136.371 1.4332L154.096 61.9566L153.548 62.1156L135.823 1.59221C135.716 1.23079 135.47 0.926102 135.138 0.744908C134.806 0.563715 134.416 0.520783 134.052 0.625526L1.60086 39.0183C1.23721 39.1237 0.930548 39.3685 0.748327 39.6989C0.566105 40.0292 0.523252 40.4181 0.629196 40.7798L20.6365 109.096L20.088 109.255Z" fill="#3F3D56"/>
<path d="M124.78 62.2379C124.378 62.2374 123.988 62.1076 123.666 61.8677C123.345 61.6278 123.11 61.2908 122.997 60.9071L119.641 49.4487C119.504 48.9784 119.56 48.4732 119.797 48.0439C120.034 47.6146 120.432 47.2963 120.904 47.1588L132.422 43.8203C132.895 43.6839 133.403 43.7395 133.834 43.9752C134.266 44.2108 134.585 44.6071 134.724 45.0771L138.079 56.5355C138.217 57.0058 138.161 57.511 137.924 57.9403C137.687 58.3696 137.289 58.6879 136.816 58.8254L125.299 62.1639C125.13 62.2129 124.956 62.2378 124.78 62.2379Z" fill="#113CFC"/>
<path d="M19.7788 41.1501C19.7443 41.0324 19.7032 40.9166 19.6559 40.8034C19.3339 40.0258 18.7343 39.394 17.9725 39.0295C17.2107 38.665 16.3404 38.5934 15.5288 38.8284C14.7171 39.0635 14.0214 39.5887 13.5754 40.3031C13.1293 41.0175 12.9644 41.8707 13.1122 42.6988C13.133 42.8196 13.1606 42.9391 13.1951 43.0568C13.4036 43.7651 13.8372 44.3871 14.4309 44.8297C15.0246 45.2723 15.7464 45.5117 16.4883 45.512C16.8122 45.5127 17.1345 45.4668 17.4452 45.3756C18.3172 45.1221 19.0526 44.5349 19.49 43.7428C19.9275 42.9507 20.0313 42.0183 19.7788 41.1501ZM17.2852 44.83C16.558 45.04 15.7768 44.9545 15.1128 44.5922C14.4489 44.23 13.9564 43.6206 13.7435 42.8977C13.71 42.7799 13.6833 42.6604 13.6634 42.5396C13.5563 41.8574 13.7026 41.1597 14.075 40.577C14.4474 39.9943 15.0204 39.5665 15.6868 39.3736C16.3533 39.1806 17.0675 39.2358 17.696 39.5288C18.3245 39.8218 18.8243 40.3325 19.1018 40.9654C19.1535 41.0765 19.1965 41.1915 19.2304 41.3092C19.4411 42.0327 19.3547 42.8099 18.99 43.47C18.6253 44.1301 18.0121 44.6193 17.2852 44.83V44.83Z" fill="#113CFC"/>
<path d="M11.372 43.5854C11.1892 42.9609 11.2068 42.2952 11.4222 41.6811C11.6377 41.0669 12.0403 40.5349 12.574 40.1592C12.074 40.135 11.5754 40.23 11.1197 40.4362C10.6641 40.6425 10.2646 40.9542 9.95449 41.3452C9.6444 41.7362 9.43271 42.1952 9.33707 42.6841C9.24142 43.173 9.26458 43.6775 9.40462 44.1557C9.54466 44.6338 9.79751 45.0718 10.1421 45.4331C10.4867 45.7943 10.9132 46.0684 11.3858 46.2325C11.8585 46.3966 12.3637 46.446 12.8594 46.3765C13.3551 46.307 13.827 46.1207 14.2357 45.8331C13.5826 45.8014 12.9558 45.5678 12.4425 45.1649C11.9292 44.762 11.555 44.2099 11.372 43.5854Z" fill="#113CFC"/>
<path d="M100.163 57.6685C100.102 57.451 99.999 57.2476 99.8591 57.0699C99.7192 56.8922 99.5455 56.7437 99.3479 56.6328C99.1503 56.522 98.9326 56.451 98.7074 56.4239C98.4821 56.3968 98.2537 56.4142 98.0352 56.475L79.0723 61.7519L77.0301 62.3202H89.8548L91.897 61.7519L98.9663 59.7855C99.407 59.6623 99.7805 59.3702 100.005 58.9733C100.229 58.5764 100.286 58.1071 100.163 57.6685Z" fill="#CCCCCC"/>
<path d="M86.7472 53.7271C86.6236 53.2885 86.33 52.9167 85.931 52.6934C85.5319 52.4702 85.0601 52.4137 84.6192 52.5365L56.165 60.4533C55.7674 60.5653 55.4231 60.815 55.1942 61.1573C54.9654 61.4997 54.867 61.9121 54.9168 62.3202H62.2831L64.3281 61.7519L85.5504 55.847C85.9914 55.7234 86.3652 55.4308 86.5896 55.0333C86.8139 54.6359 86.8706 54.1661 86.7472 53.7271Z" fill="#CCCCCC"/>
<path d="M160.001 61.7512H22.0419C21.5118 61.7518 21.0036 61.9616 20.6288 62.3345C20.254 62.7074 20.0431 63.213 20.0425 63.7404V145.011C20.0431 145.538 20.2539 146.044 20.6288 146.417C21.0036 146.79 21.5118 146.999 22.0419 147H160.001C160.531 146.999 161.039 146.79 161.414 146.417C161.789 146.044 161.999 145.538 162 145.011V63.7404C161.999 63.213 161.789 62.7074 161.414 62.3345C161.039 61.9616 160.531 61.7518 160.001 61.7512ZM161.429 145.011C161.429 145.388 161.278 145.749 161.01 146.015C160.742 146.282 160.379 146.431 160.001 146.432H22.0419C21.6632 146.431 21.3 146.282 21.0322 146.015C20.7644 145.749 20.6139 145.388 20.6138 145.011V63.7404C20.6139 63.3636 20.7645 63.0023 21.0323 62.7359C21.3001 62.4694 21.6632 62.3197 22.0419 62.3195H160.001C160.379 62.3197 160.742 62.4694 161.01 62.7359C161.278 63.0023 161.429 63.3636 161.429 63.7404V145.011Z" fill="#3F3D56"/>
<path d="M35.4654 72.8342C34.7875 72.8342 34.1249 72.6342 33.5612 72.2595C32.9975 71.8848 32.5582 71.3523 32.2988 70.7292C32.0394 70.1061 31.9715 69.4205 32.1038 68.759C32.236 68.0975 32.5625 67.4899 33.0418 67.013C33.5212 66.5361 34.1319 66.2114 34.7968 66.0798C35.4617 65.9482 36.1508 66.0158 36.7771 66.2738C37.4034 66.5319 37.9387 66.969 38.3154 67.5298C38.692 68.0905 38.893 68.7498 38.893 69.4242C38.892 70.3283 38.5305 71.195 37.8879 71.8343C37.2454 72.4736 36.3742 72.8332 35.4654 72.8342ZM35.4654 66.5826C34.9005 66.5826 34.3483 66.7493 33.8786 67.0615C33.4089 67.3738 33.0428 67.8176 32.8266 68.3368C32.6104 68.856 32.5538 69.4274 32.664 69.9786C32.7743 70.5298 33.0463 71.0362 33.4458 71.4336C33.8452 71.831 34.3542 72.1016 34.9082 72.2113C35.4623 72.3209 36.0366 72.2646 36.5585 72.0496C37.0804 71.8345 37.5265 71.4703 37.8404 71.003C38.1542 70.5357 38.3217 69.9863 38.3217 69.4242C38.3209 68.6709 38.0197 67.9486 37.4842 67.4158C36.9487 66.8831 36.2227 66.5835 35.4654 66.5826Z" fill="#113CFC"/>
<path d="M30.1379 69.4242C30.138 68.7738 30.342 68.1396 30.7215 67.6099C31.101 67.0803 31.6372 66.6816 32.2552 66.4694C31.782 66.3069 31.2766 66.2594 30.7811 66.3306C30.2856 66.4019 29.8144 66.5899 29.4068 66.879C28.9992 67.1681 28.6668 67.5499 28.4376 67.9926C28.2083 68.4354 28.0886 68.9262 28.0886 69.4243C28.0886 69.9223 28.2083 70.4131 28.4376 70.8559C28.6668 71.2986 28.9992 71.6804 29.4068 71.9695C29.8144 72.2586 30.2856 72.4466 30.7811 72.5179C31.2766 72.5891 31.782 72.5416 32.2552 72.3791C31.6372 72.1669 31.101 71.7682 30.7215 71.2386C30.342 70.7089 30.138 70.0747 30.1379 69.4242Z" fill="#113CFC"/>
<path d="M49.3595 109.712C48.6779 109.711 48.0245 109.442 47.5426 108.962C47.0607 108.483 46.7896 107.833 46.7888 107.155V99.4824C46.7888 98.8041 47.0596 98.1536 47.5417 97.674C48.0238 97.1944 48.6777 96.9249 49.3595 96.9249C50.0413 96.9249 50.6951 97.1944 51.1772 97.674C51.6593 98.1536 51.9301 98.8041 51.9301 99.4824V107.155C51.9293 107.833 51.6583 108.483 51.1763 108.962C50.6944 109.442 50.041 109.711 49.3595 109.712Z" fill="#113CFC"/>
<path d="M56.2145 109.712C55.533 109.711 54.8796 109.442 54.3977 108.962C53.9158 108.483 53.6447 107.833 53.6439 107.155V99.4824C53.6439 98.8041 53.9147 98.1536 54.3968 97.674C54.8789 97.1944 55.5328 96.9249 56.2145 96.9249C56.8963 96.9249 57.5502 97.1944 58.0323 97.674C58.5144 98.1536 58.7852 98.8041 58.7852 99.4824V107.155C58.7844 107.833 58.5133 108.483 58.0314 108.962C57.5495 109.442 56.8961 109.711 56.2145 109.712Z" fill="#113CFC"/>
<path d="M63.0696 109.712C62.3881 109.711 61.7347 109.442 61.2528 108.962C60.7709 108.483 60.4998 107.833 60.499 107.155V99.4824C60.499 98.8041 60.7698 98.1536 61.2519 97.674C61.734 97.1944 62.3879 96.9249 63.0696 96.9249C63.7514 96.9249 64.4053 97.1944 64.8874 97.674C65.3695 98.1536 65.6403 98.8041 65.6403 99.4824V107.155C65.6395 107.833 65.3684 108.483 64.8865 108.962C64.4046 109.442 63.7512 109.711 63.0696 109.712Z" fill="#113CFC"/>
<path d="M73.6379 109.712C72.9563 109.711 72.3029 109.442 71.821 108.962C71.3391 108.483 71.068 107.833 71.0672 107.155V99.4824C71.0672 98.8041 71.3381 98.1536 71.8201 97.674C72.3022 97.1944 72.9561 96.9249 73.6379 96.9249C74.3196 96.9249 74.9735 97.1944 75.4556 97.674C75.9377 98.1536 76.2085 98.8041 76.2085 99.4824V107.155C76.2077 107.833 75.9367 108.483 75.4547 108.962C74.9728 109.442 74.3194 109.711 73.6379 109.712Z" fill="#113CFC"/>
<path d="M80.493 109.712C79.8114 109.711 79.158 109.442 78.6761 108.962C78.1942 108.483 77.9231 107.833 77.9223 107.155V99.4824C77.9223 98.8041 78.1932 98.1536 78.6752 97.674C79.1573 97.1944 79.8112 96.9249 80.493 96.9249C81.1747 96.9249 81.8286 97.1944 82.3107 97.674C82.7928 98.1536 83.0636 98.8041 83.0636 99.4824V107.155C83.0628 107.833 82.7918 108.483 82.3098 108.962C81.8279 109.442 81.1745 109.711 80.493 109.712Z" fill="#113CFC"/>
<path d="M87.348 109.712C86.6665 109.711 86.0131 109.442 85.5311 108.962C85.0492 108.483 84.7781 107.833 84.7773 107.155V99.4824C84.7773 98.8041 85.0482 98.1536 85.5303 97.674C86.0124 97.1944 86.6662 96.9249 87.348 96.9249C88.0298 96.9249 88.6836 97.1944 89.1657 97.674C89.6478 98.1536 89.9187 98.8041 89.9187 99.4824V107.155C89.9179 107.833 89.6468 108.483 89.1649 108.962C88.683 109.442 88.0295 109.711 87.348 109.712Z" fill="#113CFC"/>
<path d="M97.9163 109.712C97.2348 109.711 96.5814 109.442 96.0994 108.962C95.6175 108.483 95.3464 107.833 95.3456 107.155V99.4824C95.3456 98.8041 95.6165 98.1536 96.0986 97.674C96.5807 97.1944 97.2345 96.9249 97.9163 96.9249C98.5981 96.9249 99.2519 97.1944 99.734 97.674C100.216 98.1536 100.487 98.8041 100.487 99.4824V107.155C100.486 107.833 100.215 108.483 99.7332 108.962C99.2513 109.442 98.5978 109.711 97.9163 109.712Z" fill="#113CFC"/>
<path d="M104.771 109.712C104.09 109.711 103.436 109.442 102.955 108.962C102.473 108.483 102.202 107.833 102.201 107.155V99.4824C102.201 98.8041 102.472 98.1536 102.954 97.674C103.436 97.1944 104.09 96.9249 104.771 96.9249C105.453 96.9249 106.107 97.1944 106.589 97.674C107.071 98.1536 107.342 98.8041 107.342 99.4824V107.155C107.341 107.833 107.07 108.483 106.588 108.962C106.106 109.442 105.453 109.711 104.771 109.712Z" fill="#113CFC"/>
<path d="M111.626 109.712C110.945 109.711 110.292 109.442 109.81 108.962C109.328 108.483 109.057 107.833 109.056 107.155V99.4824C109.056 98.8041 109.327 98.1536 109.809 97.674C110.291 97.1944 110.945 96.9249 111.626 96.9249C112.308 96.9249 112.962 97.1944 113.444 97.674C113.926 98.1536 114.197 98.8041 114.197 99.4824V107.155C114.196 107.833 113.925 108.483 113.443 108.962C112.961 109.442 112.308 109.711 111.626 109.712Z" fill="#113CFC"/>
<path d="M122.195 109.712C121.513 109.711 120.86 109.442 120.378 108.962C119.896 108.483 119.625 107.833 119.624 107.155V99.4824C119.624 98.8041 119.895 98.1536 120.377 97.674C120.859 97.1944 121.513 96.9249 122.195 96.9249C122.876 96.9249 123.53 97.1944 124.012 97.674C124.495 98.1536 124.765 98.8041 124.765 99.4824V107.155C124.765 107.833 124.494 108.483 124.012 108.962C123.53 109.442 122.876 109.711 122.195 109.712Z" fill="#113CFC"/>
<path d="M129.05 109.712C128.368 109.711 127.715 109.442 127.233 108.962C126.751 108.483 126.48 107.833 126.479 107.155V99.4824C126.479 98.8041 126.75 98.1536 127.232 97.674C127.714 97.1944 128.368 96.9249 129.05 96.9249C129.732 96.9249 130.385 97.1944 130.868 97.674C131.35 98.1536 131.62 98.8041 131.62 99.4824V107.155C131.62 107.833 131.349 108.483 130.867 108.962C130.385 109.442 129.731 109.711 129.05 109.712Z" fill="#113CFC"/>
<path d="M135.905 109.712C135.223 109.711 134.57 109.442 134.088 108.962C133.606 108.483 133.335 107.833 133.334 107.155V99.4824C133.334 98.8041 133.605 98.1536 134.087 97.674C134.569 97.1944 135.223 96.9249 135.905 96.9249C136.587 96.9249 137.241 97.1944 137.723 97.674C138.205 98.1536 138.476 98.8041 138.476 99.4824V107.155C138.475 107.833 138.204 108.483 137.722 108.962C137.24 109.442 136.586 109.711 135.905 109.712Z" fill="#113CFC"/>
<path d="M66.788 138.176H29.8161C29.358 138.176 28.9187 137.995 28.5947 137.673C28.2708 137.35 28.0888 136.913 28.0888 136.458C28.0888 136.002 28.2708 135.565 28.5947 135.242C28.9187 134.92 29.358 134.739 29.8161 134.739H66.788C67.2461 134.739 67.6854 134.92 68.0093 135.242C68.3333 135.565 68.5152 136.002 68.5152 136.458C68.5152 136.913 68.3333 137.35 68.0093 137.673C67.6854 137.995 67.2461 138.176 66.788 138.176Z" fill="#E6E6E6"/>
<path d="M54.9344 130.788H41.6697C41.2116 130.788 40.7722 130.607 40.4483 130.284C40.1244 129.962 39.9424 129.525 39.9424 129.069C39.9424 128.614 40.1244 128.176 40.4483 127.854C40.7722 127.532 41.2116 127.351 41.6697 127.351H54.9344C55.3925 127.351 55.8318 127.532 56.1558 127.854C56.4797 128.176 56.6617 128.614 56.6617 129.069C56.6617 129.525 56.4797 129.962 56.1558 130.284C55.8318 130.607 55.3925 130.788 54.9344 130.788Z" fill="#E6E6E6"/>
<path d="M161.326 78.7385H20.511V79.3068H161.326V78.7385Z" fill="#3F3D56"/>
</g>
<defs>
<clipPath id="clip0_98_353">
<rect width="162" height="147" fill="white"/>
</clipPath>
</defs>
</svg>
